<svg height="512pt" viewBox="0 -13 512 511" width="512pt" xmlns="http://www.w3.org/2000/svg"><path d="m437.511719 362.601562h-16.496094c-6.101563 0-11.046875-4.945312-11.046875-11.046874v-332.507813c0-6.101563 4.945312-11.046875 11.046875-11.046875h16.496094c6.101562 0 11.046875 4.945312 11.046875 11.046875v332.507813c0 6.101562-4.945313 11.046874-11.046875 11.046874zm0 0" fill="#ffd782"/><path d="m437.511719 285.808594h-16.496094c-6.101563 0-11.046875-4.945313-11.046875-11.046875v76.792969c0 6.101562 4.945312 11.046874 11.046875 11.046874h16.496094c6.101562 0 11.046875-4.945312 11.046875-11.046874v-76.792969c0 6.101562-4.945313 11.046875-11.046875 11.046875zm0 0" fill="#ffc36f"/><path d="m487.484375 230.347656-38.925781 9.53125v-109.15625l38.925781 9.53125c9.988281 2.445313 17.015625 11.402344 17.015625 21.691406v46.710938c0 10.289062-7.027344 19.246094-17.015625 21.691406zm0 0" fill="#eff2fa"/><path d="m467.226562 170.503906v-35.210937l-18.667968-4.570313v109.15625l38.925781-9.53125c9.988281-2.445312 17.015625-11.398437 17.015625-21.683594v-8.910156c-18.96875 4.644532-37.273438-9.71875-37.273438-29.25zm0 0" fill="#d7deed"/><path d="m161.652344 262.09375h-107.234375c-11.148438 0-20.183594-9.039062-20.183594-20.1875v-113.210938c0-11.148437 9.035156-20.1875 20.183594-20.1875h107.234375zm0 0" fill="#ffd782"/><path d="m34.234375 187.800781v54.105469c0 11.148438 9.039063 20.1875 20.1875 20.1875h107.230469v-54.109375h-107.234375c-11.148438 0-20.183594-9.039063-20.183594-20.183594zm0 0" fill="#ffc36f"/><path d="m409.96875 350.695312-248.316406-88.601562v-153.585938l248.316406-88.601562zm0 0" fill="#eff2fa"/><path d="m380.15625 30.542969v15.386719c0 88.664062-71.246094 160.871093-159.902344 162.058593l-58.601562.78125v53.324219l248.316406 88.601562v-330.789062zm0 0" fill="#d7deed"/><path d="m197.058594 477.964844c-14.660156 0-28.257813-5.25-38.839844-14.109375-10.578125-8.851563-18.140625-21.320313-20.726562-35.75l-29.761719-166.011719v-153.578125h53.921875v153.578125l8.667968 48.390625 2.652344 14.78125 5.417969 30.21875 2.660156 14.851563h.011719l5.398438 30.148437 2.660156 14.871094 10.648437 59.378906c.300781 1.679687-1 3.230469-2.710937 3.230469zm0 0" fill="#5c546a"/><path d="m107.734375 108.507812h-30.925781v-12.800781c0-6.78125 5.5-12.28125 12.28125-12.28125h6.359375c6.785156 0 12.285156 5.5 12.285156 12.28125zm0 0" fill="#ff8000"/><path d="m15.632812 228.414062h18.601563v-86.226562h-18.601563c-4.492187 0-8.132812 3.640625-8.132812 8.132812v69.964844c0 4.488282 3.640625 8.128906 8.132812 8.128906zm0 0" fill="#ff8000"/><path d="m107.730469 207.984375h53.917969v53.917969h-53.917969zm0 0" fill="#4f495b"/><path d="m489.269531 132.96875-33.210937-8.128906v-105.792969c0-10.226563-8.320313-18.546875-18.546875-18.546875h-16.496094c-8.621094 0-15.867187 5.921875-17.9375 13.902344l-242.722656 86.605468h-45.121094v-5.300781c0-10.90625-8.875-19.78125-19.785156-19.78125h-6.355469c-10.910156 0-19.785156 8.875-19.785156 19.78125v5.300781h-14.890625c-15.265625 0-27.683594 12.421876-27.683594 27.6875v5.992188h-11.101563c-8.621093 0-15.632812 7.011719-15.632812 15.628906v69.96875c0 8.617188 7.011719 15.628906 15.632812 15.628906h11.101563v5.992188c0 15.269531 12.417969 27.6875 27.6875 27.6875h47.039063l20.542968 114.621094c.648438 3.628906 3.808594 6.175781 7.371094 6.175781.441406 0 .886719-.039063 1.332031-.117187 4.078125-.730469 6.789063-4.628907 6.0625-8.707032l-20.070312-111.972656h38.679687l7.332032 40.890625h-16.292969c-4.140625 0-7.5 3.359375-7.5 7.5s3.359375 7.5 7.5 7.5h18.980469l5.375 30h-14.125c-4.140626 0-7.5 3.359375-7.5 7.5s3.359374 7.5 7.5 7.5h16.816406l5.375 30h-14.09375c-4.144532 0-7.5 3.359375-7.5 7.5s3.355468 7.5 7.5 7.5h16.785156l9.796875 54.675781c-23.171875-2.496094-42.261719-19.96875-46.453125-43.375l-3.605469-20.125c-.734375-4.074218-4.625-6.789062-8.707031-6.058594-4.078125.734376-6.789062 4.628907-6.058594 8.707032l3.605469 20.121094c5.820313 32.472656 33.976563 56.039062 66.953125 56.039062 3.039062 0 5.90625-1.335938 7.859375-3.671875 1.949219-2.332031 2.765625-5.390625 2.226563-8.386719l-35.828126-199.902344 231.761719 82.695313c2.070313 7.980469 9.3125 13.898437 17.933594 13.898437h16.496094c10.226562 0 18.546875-8.320312 18.546875-18.546874v-105.789063l33.210937-8.132813c13.382813-3.277343 22.730469-15.191406 22.730469-28.976562v-46.710938c0-13.785156-9.347656-25.699218-22.730469-28.976562zm-327.617187.015625c4.144531 0 7.5-3.359375 7.5-7.5v-11.6875l233.3125-83.25v309.507813l-233.3125-83.25v-97.820313c0-4.140625-3.355469-7.5-7.5-7.5-4.140625 0-7.5 3.359375-7.5 7.5v95.609375h-38.917969v-138.585938h38.917969v9.476563c0 4.140625 3.359375 7.5 7.5 7.5zm-77.34375-37.277344c0-2.636719 2.148437-4.78125 4.785156-4.78125h6.355469c2.640625 0 4.785156 2.144531 4.785156 4.78125v5.304688h-15.925781zm-68.675782 125.207031c-.351562 0-.632812-.28125-.632812-.628906v-69.964844c0-.347656.28125-.632812.632812-.632812h11.101563v71.226562zm26.101563 20.992188v-113.210938c0-6.996093 5.6875-12.6875 12.683594-12.6875h45.816406v138.585938h-45.816406c-6.992188 0-12.683594-5.691406-12.683594-12.6875zm455.265625-33.25c0 6.855469-4.644531 12.777344-11.300781 14.40625l-29.640625 7.257812v-42.335937c0-4.140625-3.359375-7.5-7.5-7.5-4.144532 0-7.5 3.359375-7.5 7.5v163.570313c0 1.957031-1.59375 3.546874-3.546875 3.546874h-16.496094c-1.957031 0-3.550781-1.589843-3.550781-3.546874v-332.507813c0-1.957031 1.59375-3.546875 3.550781-3.546875h16.496094c1.953125 0 3.546875 1.589844 3.546875 3.546875v135.9375c0 4.140625 3.355468 7.5 7.5 7.5 4.140625 0 7.5-3.359375 7.5-7.5v-14.703125l29.640625 7.257812c6.652343 1.628907 11.300781 7.550782 11.300781 14.40625zm0 0"/></svg>